<svg xmlns="http://www.w3.org/2000/svg" width="520" height="520" viewBox="0 0 520 520">
<rect x="0" y="0" width="520" height="520" fill="#fafafa"/>
<rect x="34.1" y="34.1" width="451.7" height="451.7" fill="white" stroke="#dddddd" stroke-width="1"/>
<rect x="30.7" y="34.5" width="7.5" height="451.1" fill="#888888" stroke="#444444" stroke-width="0.7"/>
<rect x="481.8" y="34.5" width="7.5" height="451.1" fill="#888888" stroke="#444444" stroke-width="0.7"/>
<rect x="34.5" y="481.8" width="451.1" height="7.5" fill="#888888" stroke="#444444" stroke-width="0.7"/>
<rect x="34.5" y="30.7" width="451.1" height="7.5" fill="#888888" stroke="#444444" stroke-width="0.7"/>
<rect x="147.2" y="331.4" width="338.3" height="7.5" fill="#888888" stroke="#444444" stroke-width="0.7"/>
<rect x="34.5" y="181.1" width="338.3" height="7.5" fill="#888888" stroke="#444444" stroke-width="0.7"/>
<rect x="122.0" y="196.9" width="45.1" height="148.9" fill="#ffd95a" stroke="#aa7c10" stroke-width="0.7" transform="rotate(-280.49 144.6 271.4)"/>
<rect x="394.9" y="100.5" width="68.2" height="35.1" fill="#ffd95a" stroke="#aa7c10" stroke-width="0.7" transform="rotate(-84.83 428.9 118.0)"/>
<rect x="233.8" y="390.0" width="30.7" height="88.0" fill="#ffd95a" stroke="#aa7c10" stroke-width="0.7" transform="rotate(-5.89 249.1 434.0)"/>
<line x1="210.0" y1="74.5" x2="132.5" y2="442.3" stroke="#e8881a" stroke-width="1" stroke-dasharray="4,3"/>
<line x1="181.54604912280698" y1="175.0596" x2="193.54604912280698" y2="187.0596" stroke="red" stroke-width="2"/>
<line x1="181.54604912280698" y1="187.0596" x2="193.54604912280698" y2="175.0596" stroke="red" stroke-width="2"/>
<circle cx="132.5" cy="442.3" r="16.1" fill="rgba(255,0,0,0.18)" stroke="#cc0000" stroke-width="0.8"/>
<circle cx="132.5" cy="442.3" r="3" fill="#cc0000"/>
<line x1="210.0" y1="74.5" x2="232.6" y2="74.5" stroke="#0050d0" stroke-width="2.4"/>
<circle cx="210.0" cy="74.5" r="4" fill="#0050d0"/>
<text x="18" y="14" font-family="monospace" font-size="10" fill="#222">hop_2 | run_0003/env_0003_pair_000.xml  E=1.165  hit=0.338  G=2.480  G/E=2.13</text>
</svg>