<svg xmlns="http://www.w3.org/2000/svg" width="520" height="520" viewBox="0 0 520 520">
<rect x="0" y="0" width="520" height="520" fill="#fafafa"/>
<rect x="34.1" y="34.1" width="451.7" height="451.7" fill="white" stroke="#dddddd" stroke-width="1"/>
<rect x="30.7" y="34.5" width="7.5" height="451.1" fill="#888888" stroke="#444444" stroke-width="0.7"/>
<rect x="481.8" y="34.5" width="7.5" height="451.1" fill="#888888" stroke="#444444" stroke-width="0.7"/>
<rect x="34.5" y="481.8" width="451.1" height="7.5" fill="#888888" stroke="#444444" stroke-width="0.7"/>
<rect x="34.5" y="30.7" width="451.1" height="7.5" fill="#888888" stroke="#444444" stroke-width="0.7"/>
<rect x="147.2" y="331.4" width="338.3" height="7.5" fill="#888888" stroke="#444444" stroke-width="0.7"/>
<rect x="34.5" y="181.1" width="338.3" height="7.5" fill="#888888" stroke="#444444" stroke-width="0.7"/>
<rect x="68.6" y="406.7" width="47.7" height="63.6" fill="#ffd95a" stroke="#aa7c10" stroke-width="0.7" transform="rotate(-201.55 92.4 438.5)"/>
<rect x="387.9" y="40.4" width="33.3" height="132.4" fill="#ffd95a" stroke="#aa7c10" stroke-width="0.7" transform="rotate(-343.21 404.6 106.6)"/>
<rect x="321.1" y="373.2" width="35.2" height="78.6" fill="#ffd95a" stroke="#aa7c10" stroke-width="0.7" transform="rotate(-20.36 338.7 412.6)"/>
<line x1="306.8" y1="148.7" x2="455.2" y2="364.9" stroke="#e8881a" stroke-width="1" stroke-dasharray="4,3"/>
<line x1="323.0174368159204" y1="175.0596" x2="335.0174368159204" y2="187.0596" stroke="red" stroke-width="2"/>
<line x1="323.0174368159204" y1="187.0596" x2="335.0174368159204" y2="175.0596" stroke="red" stroke-width="2"/>
<circle cx="455.2" cy="364.9" r="16.1" fill="rgba(255,0,0,0.18)" stroke="#cc0000" stroke-width="0.8"/>
<circle cx="455.2" cy="364.9" r="3" fill="#cc0000"/>
<line x1="306.8" y1="148.7" x2="329.4" y2="148.7" stroke="#0050d0" stroke-width="2.4"/>
<circle cx="306.8" cy="148.7" r="4" fill="#0050d0"/>
<text x="18" y="14" font-family="monospace" font-size="10" fill="#222">hop_2 | run_0001/env_0001_pair_001.xml  E=0.813  hit=0.122  G=2.710  G/E=3.33</text>
</svg>