<svg xmlns="http://www.w3.org/2000/svg" width="520" height="520" viewBox="0 0 520 520">
<rect x="0" y="0" width="520" height="520" fill="#fafafa"/>
<rect x="34.1" y="34.1" width="451.7" height="451.7" fill="white" stroke="#dddddd" stroke-width="1"/>
<rect x="30.7" y="34.5" width="7.5" height="451.1" fill="#888888" stroke="#444444" stroke-width="0.7"/>
<rect x="481.8" y="34.5" width="7.5" height="451.1" fill="#888888" stroke="#444444" stroke-width="0.7"/>
<rect x="34.5" y="481.8" width="451.1" height="7.5" fill="#888888" stroke="#444444" stroke-width="0.7"/>
<rect x="34.5" y="30.7" width="451.1" height="7.5" fill="#888888" stroke="#444444" stroke-width="0.7"/>
<rect x="147.2" y="331.4" width="338.3" height="7.5" fill="#888888" stroke="#444444" stroke-width="0.7"/>
<rect x="34.5" y="181.1" width="338.3" height="7.5" fill="#888888" stroke="#444444" stroke-width="0.7"/>
<rect x="379.5" y="175.1" width="48.2" height="63.8" fill="#ffd95a" stroke="#aa7c10" stroke-width="0.7" transform="rotate(-1.48 403.6 207.0)"/>
<rect x="60.7" y="238.6" width="83.0" height="73.8" fill="#ffd95a" stroke="#aa7c10" stroke-width="0.7" transform="rotate(-124.10 102.2 275.5)"/>
<rect x="154.8" y="93.7" width="88.2" height="33.2" fill="#ffd95a" stroke="#aa7c10" stroke-width="0.7" transform="rotate(-256.82 198.9 110.3)"/>
<line x1="397.1" y1="384.2" x2="126.1" y2="84.1" stroke="#e8881a" stroke-width="1" stroke-dasharray="4,3"/>
<line x1="350.2296086021505" y1="332.9404" x2="362.2296086021505" y2="344.9404" stroke="red" stroke-width="2"/>
<line x1="350.2296086021505" y1="344.9404" x2="362.2296086021505" y2="332.9404" stroke="red" stroke-width="2"/>
<circle cx="126.1" cy="84.1" r="16.1" fill="rgba(255,0,0,0.18)" stroke="#cc0000" stroke-width="0.8"/>
<circle cx="126.1" cy="84.1" r="3" fill="#cc0000"/>
<line x1="397.1" y1="384.2" x2="419.7" y2="384.2" stroke="#0050d0" stroke-width="2.4"/>
<circle cx="397.1" cy="384.2" r="4" fill="#0050d0"/>
<text x="18" y="14" font-family="monospace" font-size="10" fill="#222">hop_2 | run_0004/env_0004_pair_003.xml  E=1.253  hit=0.189  G=3.350  G/E=2.67</text>
</svg>