<svg xmlns="http://www.w3.org/2000/svg" width="520" height="520" viewBox="0 0 520 520">
<rect x="0" y="0" width="520" height="520" fill="#fafafa"/>
<rect x="34.1" y="34.1" width="451.7" height="451.7" fill="white" stroke="#dddddd" stroke-width="1"/>
<rect x="30.7" y="34.5" width="7.5" height="451.1" fill="#888888" stroke="#444444" stroke-width="0.7"/>
<rect x="481.8" y="34.5" width="7.5" height="451.1" fill="#888888" stroke="#444444" stroke-width="0.7"/>
<rect x="34.5" y="481.8" width="451.1" height="7.5" fill="#888888" stroke="#444444" stroke-width="0.7"/>
<rect x="34.5" y="30.7" width="451.1" height="7.5" fill="#888888" stroke="#444444" stroke-width="0.7"/>
<rect x="147.2" y="331.4" width="338.3" height="7.5" fill="#888888" stroke="#444444" stroke-width="0.7"/>
<rect x="34.5" y="181.1" width="338.3" height="7.5" fill="#888888" stroke="#444444" stroke-width="0.7"/>
<rect x="398.8" y="146.0" width="36.9" height="136.3" fill="#ffd95a" stroke="#aa7c10" stroke-width="0.7" transform="rotate(-342.00 417.3 214.2)"/>
<rect x="226.5" y="76.5" width="83.5" height="95.0" fill="#ffd95a" stroke="#aa7c10" stroke-width="0.7" transform="rotate(-355.57 268.2 124.0)"/>
<rect x="75.6" y="235.4" width="82.4" height="34.7" fill="#ffd95a" stroke="#aa7c10" stroke-width="0.7" transform="rotate(-284.66 116.8 252.7)"/>
<line x1="235.8" y1="413.3" x2="68.0" y2="148.7" stroke="#e8881a" stroke-width="1" stroke-dasharray="4,3"/>
<line x1="182.66626991869921" y1="332.9404" x2="194.66626991869921" y2="344.9404" stroke="red" stroke-width="2"/>
<line x1="182.66626991869921" y1="344.9404" x2="194.66626991869921" y2="332.9404" stroke="red" stroke-width="2"/>
<circle cx="68.0" cy="148.7" r="16.1" fill="rgba(255,0,0,0.18)" stroke="#cc0000" stroke-width="0.8"/>
<circle cx="68.0" cy="148.7" r="3" fill="#cc0000"/>
<line x1="235.8" y1="413.3" x2="258.4" y2="413.3" stroke="#0050d0" stroke-width="2.4"/>
<circle cx="235.8" cy="413.3" r="4" fill="#0050d0"/>
<text x="18" y="14" font-family="monospace" font-size="10" fill="#222">hop_3 | run_0049/env_0049_pair_001.xml  E=0.971  hit=0.273  G=2.920  G/E=3.01</text>
</svg>