<svg xmlns="http://www.w3.org/2000/svg" width="520" height="520" viewBox="0 0 520 520">
<rect x="0" y="0" width="520" height="520" fill="#fafafa"/>
<rect x="34.1" y="34.1" width="451.7" height="451.7" fill="white" stroke="#dddddd" stroke-width="1"/>
<rect x="30.7" y="34.5" width="7.5" height="451.1" fill="#888888" stroke="#444444" stroke-width="0.7"/>
<rect x="481.8" y="34.5" width="7.5" height="451.1" fill="#888888" stroke="#444444" stroke-width="0.7"/>
<rect x="34.5" y="481.8" width="451.1" height="7.5" fill="#888888" stroke="#444444" stroke-width="0.7"/>
<rect x="34.5" y="30.7" width="451.1" height="7.5" fill="#888888" stroke="#444444" stroke-width="0.7"/>
<rect x="147.2" y="331.4" width="338.3" height="7.5" fill="#888888" stroke="#444444" stroke-width="0.7"/>
<rect x="34.5" y="181.1" width="338.3" height="7.5" fill="#888888" stroke="#444444" stroke-width="0.7"/>
<rect x="68.0" y="299.0" width="73.9" height="53.2" fill="#ffd95a" stroke="#aa7c10" stroke-width="0.7" transform="rotate(-332.13 104.9 325.6)"/>
<rect x="374.9" y="199.3" width="74.0" height="42.7" fill="#ffd95a" stroke="#aa7c10" stroke-width="0.7" transform="rotate(-237.83 411.9 220.7)"/>
<rect x="298.9" y="338.8" width="40.5" height="132.3" fill="#ffd95a" stroke="#aa7c10" stroke-width="0.7" transform="rotate(-126.22 319.1 405.0)"/>
<line x1="393.9" y1="448.8" x2="361.6" y2="103.5" stroke="#e8881a" stroke-width="1" stroke-dasharray="4,3"/>
<line x1="377.64315264797517" y1="332.9404" x2="389.64315264797517" y2="344.9404" stroke="red" stroke-width="2"/>
<line x1="377.64315264797517" y1="344.9404" x2="389.64315264797517" y2="332.9404" stroke="red" stroke-width="2"/>
<circle cx="361.6" cy="103.5" r="16.1" fill="rgba(255,0,0,0.18)" stroke="#cc0000" stroke-width="0.8"/>
<circle cx="361.6" cy="103.5" r="3" fill="#cc0000"/>
<line x1="393.9" y1="448.8" x2="416.5" y2="448.8" stroke="#0050d0" stroke-width="2.4"/>
<circle cx="393.9" cy="448.8" r="4" fill="#0050d0"/>
<text x="18" y="14" font-family="monospace" font-size="10" fill="#222">hop_3 | run_0013/env_0013_pair_001.xml  E=1.075  hit=0.342  G=2.750  G/E=2.56</text>
</svg>