<svg xmlns="http://www.w3.org/2000/svg" width="520" height="520" viewBox="0 0 520 520">
<rect x="0" y="0" width="520" height="520" fill="#fafafa"/>
<rect x="34.1" y="34.1" width="451.7" height="451.7" fill="white" stroke="#dddddd" stroke-width="1"/>
<rect x="30.7" y="34.5" width="7.5" height="451.1" fill="#888888" stroke="#444444" stroke-width="0.7"/>
<rect x="481.8" y="34.5" width="7.5" height="451.1" fill="#888888" stroke="#444444" stroke-width="0.7"/>
<rect x="34.5" y="481.8" width="451.1" height="7.5" fill="#888888" stroke="#444444" stroke-width="0.7"/>
<rect x="34.5" y="30.7" width="451.1" height="7.5" fill="#888888" stroke="#444444" stroke-width="0.7"/>
<rect x="147.2" y="331.4" width="338.3" height="7.5" fill="#888888" stroke="#444444" stroke-width="0.7"/>
<rect x="34.5" y="181.1" width="338.3" height="7.5" fill="#888888" stroke="#444444" stroke-width="0.7"/>
<rect x="59.7" y="261.4" width="59.3" height="102.8" fill="#ffd95a" stroke="#aa7c10" stroke-width="0.7" transform="rotate(-178.35 89.3 312.8)"/>
<rect x="403.3" y="175.2" width="61.7" height="45.0" fill="#ffd95a" stroke="#aa7c10" stroke-width="0.7" transform="rotate(-324.08 434.1 197.7)"/>
<rect x="278.8" y="205.4" width="68.5" height="114.0" fill="#ffd95a" stroke="#aa7c10" stroke-width="0.7" transform="rotate(-132.40 313.1 262.4)"/>
<line x1="203.5" y1="371.3" x2="426.2" y2="97.1" stroke="#e8881a" stroke-width="1" stroke-dasharray="4,3"/>
<line x1="223.81794980392155" y1="332.9404" x2="235.81794980392155" y2="344.9404" stroke="red" stroke-width="2"/>
<line x1="223.81794980392155" y1="344.9404" x2="235.81794980392155" y2="332.9404" stroke="red" stroke-width="2"/>
<circle cx="426.2" cy="97.1" r="16.1" fill="rgba(255,0,0,0.18)" stroke="#cc0000" stroke-width="0.8"/>
<circle cx="426.2" cy="97.1" r="3" fill="#cc0000"/>
<line x1="203.5" y1="371.3" x2="226.1" y2="371.3" stroke="#0050d0" stroke-width="2.4"/>
<circle cx="203.5" cy="371.3" r="4" fill="#0050d0"/>
<text x="18" y="14" font-family="monospace" font-size="10" fill="#222">hop_3 | run_0001/env_0001_pair_000.xml  E=1.095  hit=0.129  G=1.980  G/E=1.81</text>
</svg>