<svg xmlns="http://www.w3.org/2000/svg" width="520" height="520" viewBox="0 0 520 520">
<rect x="0" y="0" width="520" height="520" fill="#fafafa"/>
<rect x="34.1" y="34.1" width="451.7" height="451.7" fill="white" stroke="#dddddd" stroke-width="1"/>
<rect x="30.7" y="34.5" width="7.5" height="451.1" fill="#888888" stroke="#444444" stroke-width="0.7"/>
<rect x="481.8" y="34.5" width="7.5" height="451.1" fill="#888888" stroke="#444444" stroke-width="0.7"/>
<rect x="34.5" y="481.8" width="451.1" height="7.5" fill="#888888" stroke="#444444" stroke-width="0.7"/>
<rect x="34.5" y="30.7" width="451.1" height="7.5" fill="#888888" stroke="#444444" stroke-width="0.7"/>
<rect x="147.2" y="331.4" width="338.3" height="7.5" fill="#888888" stroke="#444444" stroke-width="0.7"/>
<rect x="34.5" y="181.1" width="338.3" height="7.5" fill="#888888" stroke="#444444" stroke-width="0.7"/>
<rect x="283.9" y="365.1" width="49.8" height="88.8" fill="#ffd95a" stroke="#aa7c10" stroke-width="0.7" transform="rotate(-26.31 308.8 409.5)"/>
<rect x="61.7" y="374.8" width="117.8" height="31.5" fill="#ffd95a" stroke="#aa7c10" stroke-width="0.7" transform="rotate(-329.12 120.6 390.6)"/>
<rect x="103.3" y="227.2" width="92.3" height="45.0" fill="#ffd95a" stroke="#aa7c10" stroke-width="0.7" transform="rotate(-45.69 149.5 249.7)"/>
<line x1="322.9" y1="287.4" x2="419.7" y2="390.7" stroke="#e8881a" stroke-width="1" stroke-dasharray="4,3"/>
<line x1="358.165875" y1="325.4222666666667" x2="370.165875" y2="337.4222666666667" stroke="red" stroke-width="2"/>
<line x1="358.165875" y1="337.4222666666667" x2="370.165875" y2="325.4222666666667" stroke="red" stroke-width="2"/>
<circle cx="419.7" cy="390.7" r="16.1" fill="rgba(255,0,0,0.18)" stroke="#cc0000" stroke-width="0.8"/>
<circle cx="419.7" cy="390.7" r="3" fill="#cc0000"/>
<line x1="322.9" y1="287.4" x2="345.5" y2="287.4" stroke="#0050d0" stroke-width="2.4"/>
<circle cx="322.9" cy="287.4" r="4" fill="#0050d0"/>
<text x="18" y="14" font-family="monospace" font-size="10" fill="#222">hop_3 | run_0011/env_0011_pair_000.xml  E=0.439  hit=0.187  G=1.800  G/E=4.10</text>
</svg>