<svg xmlns="http://www.w3.org/2000/svg" width="520" height="520" viewBox="0 0 520 520">
<rect x="0" y="0" width="520" height="520" fill="#fafafa"/>
<rect x="34.1" y="34.1" width="451.7" height="451.7" fill="white" stroke="#dddddd" stroke-width="1"/>
<rect x="30.7" y="34.5" width="7.5" height="451.1" fill="#888888" stroke="#444444" stroke-width="0.7"/>
<rect x="481.8" y="34.5" width="7.5" height="451.1" fill="#888888" stroke="#444444" stroke-width="0.7"/>
<rect x="34.5" y="481.8" width="451.1" height="7.5" fill="#888888" stroke="#444444" stroke-width="0.7"/>
<rect x="34.5" y="30.7" width="451.1" height="7.5" fill="#888888" stroke="#444444" stroke-width="0.7"/>
<rect x="147.2" y="331.4" width="338.3" height="7.5" fill="#888888" stroke="#444444" stroke-width="0.7"/>
<rect x="34.5" y="181.1" width="338.3" height="7.5" fill="#888888" stroke="#444444" stroke-width="0.7"/>
<rect x="283.9" y="365.1" width="49.8" height="88.8" fill="#ffd95a" stroke="#aa7c10" stroke-width="0.7" transform="rotate(-26.31 308.8 409.5)"/>
<rect x="61.7" y="374.8" width="117.8" height="31.5" fill="#ffd95a" stroke="#aa7c10" stroke-width="0.7" transform="rotate(-329.12 120.6 390.6)"/>
<rect x="103.3" y="227.2" width="92.3" height="45.0" fill="#ffd95a" stroke="#aa7c10" stroke-width="0.7" transform="rotate(-45.69 149.5 249.7)"/>
<line x1="422.9" y1="387.5" x2="445.5" y2="71.2" stroke="#e8881a" stroke-width="1" stroke-dasharray="4,3"/>
<line x1="420.41187619047616" y1="332.9404" x2="432.41187619047616" y2="344.9404" stroke="red" stroke-width="2"/>
<line x1="420.41187619047616" y1="344.9404" x2="432.41187619047616" y2="332.9404" stroke="red" stroke-width="2"/>
<circle cx="445.5" cy="71.2" r="16.1" fill="rgba(255,0,0,0.18)" stroke="#cc0000" stroke-width="0.8"/>
<circle cx="445.5" cy="71.2" r="3" fill="#cc0000"/>
<line x1="422.9" y1="387.5" x2="445.5" y2="387.5" stroke="#0050d0" stroke-width="2.4"/>
<circle cx="422.9" cy="387.5" r="4" fill="#0050d0"/>
<text x="18" y="14" font-family="monospace" font-size="10" fill="#222">hop_3 | run_0011/env_0011_pair_001.xml  E=0.982  hit=0.151  G=2.850  G/E=2.90</text>
</svg>