<svg xmlns="http://www.w3.org/2000/svg" width="520" height="520" viewBox="0 0 520 520">
<rect x="0" y="0" width="520" height="520" fill="#fafafa"/>
<rect x="34.1" y="34.1" width="451.7" height="451.7" fill="white" stroke="#dddddd" stroke-width="1"/>
<rect x="30.7" y="34.5" width="7.5" height="451.1" fill="#888888" stroke="#444444" stroke-width="0.7"/>
<rect x="481.8" y="34.5" width="7.5" height="451.1" fill="#888888" stroke="#444444" stroke-width="0.7"/>
<rect x="34.5" y="481.8" width="451.1" height="7.5" fill="#888888" stroke="#444444" stroke-width="0.7"/>
<rect x="34.5" y="30.7" width="451.1" height="7.5" fill="#888888" stroke="#444444" stroke-width="0.7"/>
<rect x="147.2" y="331.4" width="338.3" height="7.5" fill="#888888" stroke="#444444" stroke-width="0.7"/>
<rect x="34.5" y="181.1" width="338.3" height="7.5" fill="#888888" stroke="#444444" stroke-width="0.7"/>
<rect x="82.0" y="313.2" width="51.9" height="53.7" fill="#ffd95a" stroke="#aa7c10" stroke-width="0.7" transform="rotate(-82.87 108.0 340.0)"/>
<rect x="205.4" y="67.2" width="57.4" height="92.8" fill="#ffd95a" stroke="#aa7c10" stroke-width="0.7" transform="rotate(-121.55 234.1 113.6)"/>
<rect x="198.6" y="185.2" width="35.1" height="147.5" fill="#ffd95a" stroke="#aa7c10" stroke-width="0.7" transform="rotate(-75.54 216.2 258.9)"/>
<line x1="393.9" y1="406.8" x2="97.1" y2="68.0" stroke="#e8881a" stroke-width="1" stroke-dasharray="4,3"/>
<line x1="328.4370488888889" y1="332.9404" x2="340.4370488888889" y2="344.9404" stroke="red" stroke-width="2"/>
<line x1="328.4370488888889" y1="344.9404" x2="340.4370488888889" y2="332.9404" stroke="red" stroke-width="2"/>
<circle cx="97.1" cy="68.0" r="16.1" fill="rgba(255,0,0,0.18)" stroke="#cc0000" stroke-width="0.8"/>
<circle cx="97.1" cy="68.0" r="3" fill="#cc0000"/>
<line x1="393.9" y1="406.8" x2="416.5" y2="406.8" stroke="#0050d0" stroke-width="2.4"/>
<circle cx="393.9" cy="406.8" r="4" fill="#0050d0"/>
<text x="18" y="14" font-family="monospace" font-size="10" fill="#222">hop_3 | run_0038/env_0038_pair_000.xml  E=1.396  hit=0.280  G=3.550  G/E=2.54</text>
</svg>