<svg xmlns="http://www.w3.org/2000/svg" width="520" height="520" viewBox="0 0 520 520">
<rect x="0" y="0" width="520" height="520" fill="#fafafa"/>
<rect x="34.1" y="34.1" width="451.7" height="451.7" fill="white" stroke="#dddddd" stroke-width="1"/>
<rect x="30.7" y="34.5" width="7.5" height="451.1" fill="#888888" stroke="#444444" stroke-width="0.7"/>
<rect x="481.8" y="34.5" width="7.5" height="451.1" fill="#888888" stroke="#444444" stroke-width="0.7"/>
<rect x="34.5" y="481.8" width="451.1" height="7.5" fill="#888888" stroke="#444444" stroke-width="0.7"/>
<rect x="34.5" y="30.7" width="451.1" height="7.5" fill="#888888" stroke="#444444" stroke-width="0.7"/>
<rect x="147.2" y="331.4" width="338.3" height="7.5" fill="#888888" stroke="#444444" stroke-width="0.7"/>
<rect x="34.5" y="181.1" width="338.3" height="7.5" fill="#888888" stroke="#444444" stroke-width="0.7"/>
<rect x="82.0" y="313.2" width="51.9" height="53.7" fill="#ffd95a" stroke="#aa7c10" stroke-width="0.7" transform="rotate(-82.87 108.0 340.0)"/>
<rect x="205.4" y="67.2" width="57.4" height="92.8" fill="#ffd95a" stroke="#aa7c10" stroke-width="0.7" transform="rotate(-121.55 234.1 113.6)"/>
<rect x="198.6" y="185.2" width="35.1" height="147.5" fill="#ffd95a" stroke="#aa7c10" stroke-width="0.7" transform="rotate(-75.54 216.2 258.9)"/>
<line x1="155.1" y1="135.8" x2="393.9" y2="374.5" stroke="#e8881a" stroke-width="1" stroke-dasharray="4,3"/>
<line x1="194.41959999999997" y1="175.0596" x2="206.41959999999997" y2="187.0596" stroke="red" stroke-width="2"/>
<line x1="194.41959999999997" y1="187.0596" x2="206.41959999999997" y2="175.0596" stroke="red" stroke-width="2"/>
<circle cx="393.9" cy="374.5" r="16.1" fill="rgba(255,0,0,0.18)" stroke="#cc0000" stroke-width="0.8"/>
<circle cx="393.9" cy="374.5" r="3" fill="#cc0000"/>
<line x1="155.1" y1="135.8" x2="177.7" y2="135.8" stroke="#0050d0" stroke-width="2.4"/>
<circle cx="155.1" cy="135.8" r="4" fill="#0050d0"/>
<text x="18" y="14" font-family="monospace" font-size="10" fill="#222">hop_3 | run_0038/env_0038_pair_001.xml  E=1.047  hit=0.198  G=3.060  G/E=2.92</text>
</svg>