<svg xmlns="http://www.w3.org/2000/svg" width="520" height="520" viewBox="0 0 520 520">
<rect x="0" y="0" width="520" height="520" fill="#fafafa"/>
<rect x="34.1" y="34.1" width="451.7" height="451.7" fill="white" stroke="#dddddd" stroke-width="1"/>
<rect x="30.7" y="34.5" width="7.5" height="451.1" fill="#888888" stroke="#444444" stroke-width="0.7"/>
<rect x="481.8" y="34.5" width="7.5" height="451.1" fill="#888888" stroke="#444444" stroke-width="0.7"/>
<rect x="34.5" y="481.8" width="451.1" height="7.5" fill="#888888" stroke="#444444" stroke-width="0.7"/>
<rect x="34.5" y="30.7" width="451.1" height="7.5" fill="#888888" stroke="#444444" stroke-width="0.7"/>
<rect x="147.2" y="331.4" width="338.3" height="7.5" fill="#888888" stroke="#444444" stroke-width="0.7"/>
<rect x="34.5" y="181.1" width="338.3" height="7.5" fill="#888888" stroke="#444444" stroke-width="0.7"/>
<rect x="59.7" y="261.4" width="59.3" height="102.8" fill="#ffd95a" stroke="#aa7c10" stroke-width="0.7" transform="rotate(-178.35 89.3 312.8)"/>
<rect x="403.3" y="175.2" width="61.7" height="45.0" fill="#ffd95a" stroke="#aa7c10" stroke-width="0.7" transform="rotate(-324.08 434.1 197.7)"/>
<rect x="278.8" y="205.4" width="68.5" height="114.0" fill="#ffd95a" stroke="#aa7c10" stroke-width="0.7" transform="rotate(-132.40 313.1 262.4)"/>
<line x1="145.5" y1="145.5" x2="168.0" y2="422.9" stroke="#e8881a" stroke-width="1" stroke-dasharray="4,3"/>
<line x1="142.3515178294574" y1="175.0596" x2="154.3515178294574" y2="187.0596" stroke="red" stroke-width="2"/>
<line x1="142.3515178294574" y1="187.0596" x2="154.3515178294574" y2="175.0596" stroke="red" stroke-width="2"/>
<circle cx="168.0" cy="422.9" r="16.1" fill="rgba(255,0,0,0.18)" stroke="#cc0000" stroke-width="0.8"/>
<circle cx="168.0" cy="422.9" r="3" fill="#cc0000"/>
<line x1="145.5" y1="145.5" x2="168.0" y2="145.5" stroke="#0050d0" stroke-width="2.4"/>
<circle cx="145.5" cy="145.5" r="4" fill="#0050d0"/>
<text x="18" y="14" font-family="monospace" font-size="10" fill="#222">hop_3 | run_0001/env_0001_pair_001.xml  E=0.863  hit=0.111  G=2.510  G/E=2.91</text>
</svg>