<svg xmlns="http://www.w3.org/2000/svg" width="520" height="520" viewBox="0 0 520 520">
<rect x="0" y="0" width="520" height="520" fill="#fafafa"/>
<rect x="34.1" y="34.1" width="451.7" height="451.7" fill="white" stroke="#dddddd" stroke-width="1"/>
<rect x="30.7" y="34.5" width="7.5" height="451.1" fill="#888888" stroke="#444444" stroke-width="0.7"/>
<rect x="481.8" y="34.5" width="7.5" height="451.1" fill="#888888" stroke="#444444" stroke-width="0.7"/>
<rect x="34.5" y="481.8" width="451.1" height="7.5" fill="#888888" stroke="#444444" stroke-width="0.7"/>
<rect x="34.5" y="30.7" width="451.1" height="7.5" fill="#888888" stroke="#444444" stroke-width="0.7"/>
<rect x="147.2" y="331.4" width="338.3" height="7.5" fill="#888888" stroke="#444444" stroke-width="0.7"/>
<rect x="34.5" y="181.1" width="338.3" height="7.5" fill="#888888" stroke="#444444" stroke-width="0.7"/>
<rect x="79.9" y="363.6" width="99.8" height="68.1" fill="#ffd95a" stroke="#aa7c10" stroke-width="0.7" transform="rotate(-302.08 129.8 397.6)"/>
<rect x="247.2" y="363.7" width="153.5" height="86.5" fill="#ffd95a" stroke="#aa7c10" stroke-width="0.7" transform="rotate(-358.69 324.0 407.0)"/>
<rect x="393.4" y="129.3" width="41.9" height="75.6" fill="#ffd95a" stroke="#aa7c10" stroke-width="0.7" transform="rotate(-55.64 414.3 167.1)"/>
<line x1="452.0" y1="390.7" x2="87.4" y2="64.8" stroke="#e8881a" stroke-width="1" stroke-dasharray="4,3"/>
<line x1="388.09978745874577" y1="332.9404" x2="400.09978745874577" y2="344.9404" stroke="red" stroke-width="2"/>
<line x1="388.09978745874577" y1="344.9404" x2="400.09978745874577" y2="332.9404" stroke="red" stroke-width="2"/>
<circle cx="87.4" cy="64.8" r="16.1" fill="rgba(255,0,0,0.18)" stroke="#cc0000" stroke-width="0.8"/>
<circle cx="87.4" cy="64.8" r="3" fill="#cc0000"/>
<line x1="452.0" y1="390.7" x2="474.6" y2="390.7" stroke="#0050d0" stroke-width="2.4"/>
<circle cx="452.0" cy="390.7" r="4" fill="#0050d0"/>
<text x="18" y="14" font-family="monospace" font-size="10" fill="#222">hop_3 | run_0040/env_0040_pair_001.xml  E=1.516  hit=0.241  G=3.720  G/E=2.45</text>
</svg>