<svg xmlns="http://www.w3.org/2000/svg" width="520" height="520" viewBox="0 0 520 520">
<rect x="0" y="0" width="520" height="520" fill="#fafafa"/>
<rect x="34.1" y="34.1" width="451.7" height="451.7" fill="white" stroke="#dddddd" stroke-width="1"/>
<rect x="30.7" y="34.5" width="7.5" height="451.1" fill="#888888" stroke="#444444" stroke-width="0.7"/>
<rect x="481.8" y="34.5" width="7.5" height="451.1" fill="#888888" stroke="#444444" stroke-width="0.7"/>
<rect x="34.5" y="481.8" width="451.1" height="7.5" fill="#888888" stroke="#444444" stroke-width="0.7"/>
<rect x="34.5" y="30.7" width="451.1" height="7.5" fill="#888888" stroke="#444444" stroke-width="0.7"/>
<rect x="147.2" y="331.4" width="338.3" height="7.5" fill="#888888" stroke="#444444" stroke-width="0.7"/>
<rect x="34.5" y="181.1" width="338.3" height="7.5" fill="#888888" stroke="#444444" stroke-width="0.7"/>
<rect x="176.0" y="374.0" width="38.4" height="85.1" fill="#ffd95a" stroke="#aa7c10" stroke-width="0.7" transform="rotate(-31.48 195.3 416.6)"/>
<rect x="323.5" y="92.7" width="126.2" height="55.3" fill="#ffd95a" stroke="#aa7c10" stroke-width="0.7" transform="rotate(-343.57 386.6 120.4)"/>
<rect x="169.1" y="226.3" width="148.9" height="41.3" fill="#ffd95a" stroke="#aa7c10" stroke-width="0.7" transform="rotate(-332.72 243.5 247.0)"/>
<line x1="426.2" y1="448.8" x2="439.1" y2="68.0" stroke="#e8881a" stroke-width="1" stroke-dasharray="4,3"/>
<line x1="423.89603163841815" y1="332.9404" x2="435.89603163841815" y2="344.9404" stroke="red" stroke-width="2"/>
<line x1="423.89603163841815" y1="344.9404" x2="435.89603163841815" y2="332.9404" stroke="red" stroke-width="2"/>
<circle cx="439.1" cy="68.0" r="16.1" fill="rgba(255,0,0,0.18)" stroke="#cc0000" stroke-width="0.8"/>
<circle cx="439.1" cy="68.0" r="3" fill="#cc0000"/>
<line x1="426.2" y1="448.8" x2="448.8" y2="448.8" stroke="#0050d0" stroke-width="2.4"/>
<circle cx="426.2" cy="448.8" r="4" fill="#0050d0"/>
<text x="18" y="14" font-family="monospace" font-size="10" fill="#222">hop_3 | run_0006/env_0006_pair_002.xml  E=1.181  hit=0.341  G=3.040  G/E=2.57</text>
</svg>