<svg xmlns="http://www.w3.org/2000/svg" width="520" height="520" viewBox="0 0 520 520">
<rect x="0" y="0" width="520" height="520" fill="#fafafa"/>
<rect x="34.1" y="34.1" width="451.7" height="451.7" fill="white" stroke="#dddddd" stroke-width="1"/>
<rect x="30.7" y="34.5" width="7.5" height="451.1" fill="#888888" stroke="#444444" stroke-width="0.7"/>
<rect x="481.8" y="34.5" width="7.5" height="451.1" fill="#888888" stroke="#444444" stroke-width="0.7"/>
<rect x="34.5" y="481.8" width="451.1" height="7.5" fill="#888888" stroke="#444444" stroke-width="0.7"/>
<rect x="34.5" y="30.7" width="451.1" height="7.5" fill="#888888" stroke="#444444" stroke-width="0.7"/>
<rect x="147.2" y="331.4" width="338.3" height="7.5" fill="#888888" stroke="#444444" stroke-width="0.7"/>
<rect x="34.5" y="181.1" width="338.3" height="7.5" fill="#888888" stroke="#444444" stroke-width="0.7"/>
<rect x="137.3" y="219.5" width="50.3" height="79.5" fill="#ffd95a" stroke="#aa7c10" stroke-width="0.7" transform="rotate(-6.24 162.5 259.2)"/>
<rect x="54.4" y="338.3" width="66.6" height="134.5" fill="#ffd95a" stroke="#aa7c10" stroke-width="0.7" transform="rotate(-0.27 87.7 405.5)"/>
<rect x="320.1" y="231.5" width="131.4" height="43.7" fill="#ffd95a" stroke="#aa7c10" stroke-width="0.7" transform="rotate(-216.56 385.8 253.3)"/>
<line x1="229.3" y1="413.3" x2="371.3" y2="84.1" stroke="#e8881a" stroke-width="1" stroke-dasharray="4,3"/>
<line x1="255.40897777777775" y1="332.9404" x2="267.40897777777775" y2="344.9404" stroke="red" stroke-width="2"/>
<line x1="255.40897777777775" y1="344.9404" x2="267.40897777777775" y2="332.9404" stroke="red" stroke-width="2"/>
<circle cx="371.3" cy="84.1" r="16.1" fill="rgba(255,0,0,0.18)" stroke="#cc0000" stroke-width="0.8"/>
<circle cx="371.3" cy="84.1" r="3" fill="#cc0000"/>
<line x1="229.3" y1="413.3" x2="251.9" y2="413.3" stroke="#0050d0" stroke-width="2.4"/>
<circle cx="229.3" cy="413.3" r="4" fill="#0050d0"/>
<text x="18" y="14" font-family="monospace" font-size="10" fill="#222">hop_3 | run_0014/env_0014_pair_000.xml  E=1.111  hit=0.251  G=2.160  G/E=1.94</text>
</svg>