<svg xmlns="http://www.w3.org/2000/svg" width="520" height="520" viewBox="0 0 520 520">
<rect x="0" y="0" width="520" height="520" fill="#fafafa"/>
<rect x="34.1" y="34.1" width="451.7" height="451.7" fill="white" stroke="#dddddd" stroke-width="1"/>
<rect x="30.7" y="34.5" width="7.5" height="451.1" fill="#888888" stroke="#444444" stroke-width="0.7"/>
<rect x="481.8" y="34.5" width="7.5" height="451.1" fill="#888888" stroke="#444444" stroke-width="0.7"/>
<rect x="34.5" y="481.8" width="451.1" height="7.5" fill="#888888" stroke="#444444" stroke-width="0.7"/>
<rect x="34.5" y="30.7" width="451.1" height="7.5" fill="#888888" stroke="#444444" stroke-width="0.7"/>
<rect x="147.2" y="331.4" width="338.3" height="7.5" fill="#888888" stroke="#444444" stroke-width="0.7"/>
<rect x="34.5" y="181.1" width="338.3" height="7.5" fill="#888888" stroke="#444444" stroke-width="0.7"/>
<rect x="219.6" y="262.4" width="37.0" height="53.9" fill="#ffd95a" stroke="#aa7c10" stroke-width="0.7" transform="rotate(-65.94 238.1 289.4)"/>
<rect x="61.1" y="360.5" width="56.7" height="50.0" fill="#ffd95a" stroke="#aa7c10" stroke-width="0.7" transform="rotate(-19.61 89.4 385.5)"/>
<rect x="344.7" y="327.6" width="76.2" height="159.4" fill="#ffd95a" stroke="#aa7c10" stroke-width="0.7" transform="rotate(-257.57 382.8 407.3)"/>
<line x1="332.6" y1="97.1" x2="261.6" y2="432.6" stroke="#e8881a" stroke-width="1" stroke-dasharray="4,3"/>
<line x1="308.8294435897437" y1="175.0596" x2="320.8294435897437" y2="187.0596" stroke="red" stroke-width="2"/>
<line x1="308.8294435897437" y1="187.0596" x2="320.8294435897437" y2="175.0596" stroke="red" stroke-width="2"/>
<circle cx="261.6" cy="432.6" r="16.1" fill="rgba(255,0,0,0.18)" stroke="#cc0000" stroke-width="0.8"/>
<circle cx="261.6" cy="432.6" r="3" fill="#cc0000"/>
<line x1="332.6" y1="97.1" x2="355.2" y2="97.1" stroke="#0050d0" stroke-width="2.4"/>
<circle cx="332.6" cy="97.1" r="4" fill="#0050d0"/>
<text x="18" y="14" font-family="monospace" font-size="10" fill="#222">hop_1 | run_0000/env_0000_pair_001.xml  E=1.063  hit=0.266  G=2.400  G/E=2.26</text>
</svg>