<svg xmlns="http://www.w3.org/2000/svg" width="520" height="520" viewBox="0 0 520 520">
<rect x="0" y="0" width="520" height="520" fill="#fafafa"/>
<rect x="34.1" y="34.1" width="451.7" height="451.7" fill="white" stroke="#dddddd" stroke-width="1"/>
<rect x="30.7" y="34.5" width="7.5" height="451.1" fill="#888888" stroke="#444444" stroke-width="0.7"/>
<rect x="481.8" y="34.5" width="7.5" height="451.1" fill="#888888" stroke="#444444" stroke-width="0.7"/>
<rect x="34.5" y="481.8" width="451.1" height="7.5" fill="#888888" stroke="#444444" stroke-width="0.7"/>
<rect x="34.5" y="30.7" width="451.1" height="7.5" fill="#888888" stroke="#444444" stroke-width="0.7"/>
<rect x="147.2" y="331.4" width="338.3" height="7.5" fill="#888888" stroke="#444444" stroke-width="0.7"/>
<rect x="34.5" y="181.1" width="338.3" height="7.5" fill="#888888" stroke="#444444" stroke-width="0.7"/>
<rect x="219.6" y="262.4" width="37.0" height="53.9" fill="#ffd95a" stroke="#aa7c10" stroke-width="0.7" transform="rotate(-65.94 238.1 289.4)"/>
<rect x="61.1" y="360.5" width="56.7" height="50.0" fill="#ffd95a" stroke="#aa7c10" stroke-width="0.7" transform="rotate(-19.61 89.4 385.5)"/>
<rect x="344.7" y="327.6" width="76.2" height="159.4" fill="#ffd95a" stroke="#aa7c10" stroke-width="0.7" transform="rotate(-257.57 382.8 407.3)"/>
<line x1="155.1" y1="429.4" x2="222.9" y2="226.1" stroke="#e8881a" stroke-width="1" stroke-dasharray="4,3"/>
<line x1="179.2865333333333" y1="332.9404" x2="191.2865333333333" y2="344.9404" stroke="red" stroke-width="2"/>
<line x1="179.2865333333333" y1="344.9404" x2="191.2865333333333" y2="332.9404" stroke="red" stroke-width="2"/>
<circle cx="222.9" cy="226.1" r="16.1" fill="rgba(255,0,0,0.18)" stroke="#cc0000" stroke-width="0.8"/>
<circle cx="222.9" cy="226.1" r="3" fill="#cc0000"/>
<line x1="155.1" y1="429.4" x2="177.7" y2="429.4" stroke="#0050d0" stroke-width="2.4"/>
<circle cx="155.1" cy="429.4" r="4" fill="#0050d0"/>
<text x="18" y="14" font-family="monospace" font-size="10" fill="#222">hop_1 | run_0000/env_0000_pair_000.xml  E=0.664  hit=0.296  G=0.980  G/E=1.48</text>
</svg>