<svg xmlns="http://www.w3.org/2000/svg" width="520" height="520" viewBox="0 0 520 520">
<rect x="0" y="0" width="520" height="520" fill="#fafafa"/>
<rect x="34.1" y="34.1" width="451.7" height="451.7" fill="white" stroke="#dddddd" stroke-width="1"/>
<rect x="30.7" y="34.5" width="7.5" height="451.1" fill="#888888" stroke="#444444" stroke-width="0.7"/>
<rect x="481.8" y="34.5" width="7.5" height="451.1" fill="#888888" stroke="#444444" stroke-width="0.7"/>
<rect x="34.5" y="481.8" width="451.1" height="7.5" fill="#888888" stroke="#444444" stroke-width="0.7"/>
<rect x="34.5" y="30.7" width="451.1" height="7.5" fill="#888888" stroke="#444444" stroke-width="0.7"/>
<rect x="147.2" y="331.4" width="338.3" height="7.5" fill="#888888" stroke="#444444" stroke-width="0.7"/>
<rect x="34.5" y="181.1" width="338.3" height="7.5" fill="#888888" stroke="#444444" stroke-width="0.7"/>
<rect x="84.5" y="225.4" width="144.0" height="56.8" fill="#ffd95a" stroke="#aa7c10" stroke-width="0.7" transform="rotate(-212.21 156.5 253.8)"/>
<rect x="234.9" y="68.0" width="41.6" height="153.7" fill="#ffd95a" stroke="#aa7c10" stroke-width="0.7" transform="rotate(-260.85 255.7 144.9)"/>
<rect x="96.0" y="340.3" width="93.7" height="119.8" fill="#ffd95a" stroke="#aa7c10" stroke-width="0.7" transform="rotate(-348.60 142.9 400.2)"/>
<line x1="216.4" y1="448.8" x2="71.2" y2="352.0" stroke="#e8881a" stroke-width="1" stroke-dasharray="4,3"/>
<circle cx="71.2" cy="352.0" r="16.1" fill="rgba(255,0,0,0.18)" stroke="#cc0000" stroke-width="0.8"/>
<circle cx="71.2" cy="352.0" r="3" fill="#cc0000"/>
<line x1="216.4" y1="448.8" x2="239.0" y2="448.8" stroke="#0050d0" stroke-width="2.4"/>
<circle cx="216.4" cy="448.8" r="4" fill="#0050d0"/>
<text x="18" y="14" font-family="monospace" font-size="10" fill="#222">hop_1 | run_0003/env_0003_pair_005.xml  E=0.541  hit=inf  G=0.750  G/E=1.39</text>
</svg>