<svg xmlns="http://www.w3.org/2000/svg" width="520" height="520" viewBox="0 0 520 520">
<rect x="0" y="0" width="520" height="520" fill="#fafafa"/>
<rect x="34.1" y="34.1" width="451.7" height="451.7" fill="white" stroke="#dddddd" stroke-width="1"/>
<rect x="30.7" y="34.5" width="7.5" height="451.1" fill="#888888" stroke="#444444" stroke-width="0.7"/>
<rect x="481.8" y="34.5" width="7.5" height="451.1" fill="#888888" stroke="#444444" stroke-width="0.7"/>
<rect x="34.5" y="481.8" width="451.1" height="7.5" fill="#888888" stroke="#444444" stroke-width="0.7"/>
<rect x="34.5" y="30.7" width="451.1" height="7.5" fill="#888888" stroke="#444444" stroke-width="0.7"/>
<rect x="147.2" y="331.4" width="338.3" height="7.5" fill="#888888" stroke="#444444" stroke-width="0.7"/>
<rect x="34.5" y="181.1" width="338.3" height="7.5" fill="#888888" stroke="#444444" stroke-width="0.7"/>
<rect x="272.3" y="90.4" width="85.7" height="41.6" fill="#ffd95a" stroke="#aa7c10" stroke-width="0.7" transform="rotate(-134.70 315.2 111.2)"/>
<rect x="94.4" y="352.4" width="72.7" height="113.6" fill="#ffd95a" stroke="#aa7c10" stroke-width="0.7" transform="rotate(-162.42 130.8 409.1)"/>
<rect x="398.6" y="139.3" width="51.1" height="54.5" fill="#ffd95a" stroke="#aa7c10" stroke-width="0.7" transform="rotate(-60.76 424.1 166.5)"/>
<line x1="342.3" y1="287.4" x2="300.3" y2="400.4" stroke="#e8881a" stroke-width="1" stroke-dasharray="4,3"/>
<line x1="319.93877714285713" y1="325.4222666666667" x2="331.93877714285713" y2="337.4222666666667" stroke="red" stroke-width="2"/>
<line x1="319.93877714285713" y1="337.4222666666667" x2="331.93877714285713" y2="325.4222666666667" stroke="red" stroke-width="2"/>
<circle cx="300.3" cy="400.4" r="16.1" fill="rgba(255,0,0,0.18)" stroke="#cc0000" stroke-width="0.8"/>
<circle cx="300.3" cy="400.4" r="3" fill="#cc0000"/>
<line x1="342.3" y1="287.4" x2="364.9" y2="287.4" stroke="#0050d0" stroke-width="2.4"/>
<circle cx="342.3" cy="287.4" r="4" fill="#0050d0"/>
<text x="18" y="14" font-family="monospace" font-size="10" fill="#222">hop_1 | run_0004/env_0004_pair_001.xml  E=0.373  hit=0.145  G=1.520  G/E=4.07</text>
</svg>